<svg viewBox="0 0 389.5483870967742 74.88290306974741" preserveAspectRatio="xMidYMid meet" class="css-8aabad" id="dgebabcg"><defs id="SvgjsDefs1222"></defs><g id="SvgjsG1223" featurekey="xG21Y3-0" transform="matrix(0.6272331779399705,0,0,0.6272331779399705,17.64787558272511,16.079792637875183)" fill="#fff"><path xmlns="http://www.w3.org/2000/svg" fill="#fff" d="M11.609,46.62c-0.229,0.229-0.359,0.55-0.359,0.88s0.13,0.649,0.37,0.88c0.229,0.24,0.55,0.37,0.88,0.37  s0.649-0.13,0.88-0.37c0.24-0.23,0.37-0.55,0.37-0.88s-0.13-0.65-0.37-0.891C12.92,46.149,12.08,46.149,11.609,46.62z M42.5,66.25  c-0.69,0-1.25,0.561-1.25,1.25s0.56,1.25,1.25,1.25c6.203,0,11.25,5.047,11.25,11.25S48.703,91.25,42.5,91.25S31.25,86.203,31.25,80  c0-6.823,2.701-12.184,9.634-19.116l6.616-6.616l4.116,4.116c0.243,0.244,0.563,0.366,0.884,0.366s0.641-0.122,0.884-0.366  c0.488-0.487,0.488-1.278,0-1.768l-10-10c-0.488-0.488-1.279-0.488-1.768,0c-0.489,0.488-0.488,1.279,0,1.768l4.116,4.116  l-6.616,6.616C31.656,66.576,28.75,72.432,28.75,80c0,7.582,6.168,13.75,13.75,13.75S56.25,87.582,56.25,80S50.082,66.25,42.5,66.25  z M25,66.25c-5.818,0-10.618-4.439-11.192-10.107c4.205-0.636,7.442-4.263,7.442-8.643c0-4.825-3.925-8.75-8.75-8.75  s-8.75,3.925-8.75,8.75c0,4.42,3.297,8.075,7.559,8.659C11.9,63.199,17.81,68.75,25,68.75c0.69,0,1.25-0.561,1.25-1.25  S25.69,66.25,25,66.25z M6.25,47.5c0-3.446,2.804-6.25,6.25-6.25s6.25,2.804,6.25,6.25c0,3.445-2.804,6.25-6.25,6.25  S6.25,50.945,6.25,47.5z M90.885,16.617c-0.486-0.487-1.275-0.487-1.765-0.001c-0.489,0.486-0.49,1.277-0.005,1.767  c0.594,0.599,2.135,2.505,2.135,4.118V32.5c0.001,8.978-6.555,11.288-16.553,13.787l-19.314,4.828l-6.498-6.498l4.828-19.314  C56.213,15.304,58.523,8.75,67.5,8.75h10c1.611,0,3.52,1.542,4.116,2.134c0.243,0.244,0.563,0.366,0.884,0.366  s0.641-0.122,0.884-0.366c0.488-0.488,0.488-1.279,0-1.768C83.091,8.823,80.434,6.25,77.5,6.25h-10  c-11.602,0-14.051,9.8-16.213,18.447l-5,20c-0.013,0.049,0,0.097-0.007,0.146c-0.011,0.086-0.019,0.168-0.012,0.254  c0.007,0.08,0.024,0.154,0.045,0.23c0.021,0.077,0.045,0.149,0.081,0.222c0.038,0.077,0.087,0.144,0.141,0.212  c0.03,0.039,0.045,0.086,0.081,0.122l7.5,7.5c0.017,0.018,0.038,0.021,0.057,0.038c0.082,0.072,0.173,0.129,0.271,0.179  c0.041,0.021,0.076,0.049,0.119,0.063c0.139,0.053,0.285,0.086,0.438,0.086c0,0,0,0,0.001,0s0.001,0,0.002,0  c0.101,0,0.2-0.013,0.302-0.037l20-5c8.646-2.161,18.446-4.61,18.445-16.212c0-4.956,0-10,0-10  C93.75,19.567,91.178,16.91,90.885,16.617z"></path></g><g id="SvgjsG1224" featurekey="n48U4P-0" transform="matrix(2.2504475743829917,0,0,2.2504475743829917,92.89438208980819,18.89259179227622)" fill="#fff"><path d="M4.5 5.720000000000001 l5.96 9.58 l0.04 0 l0 -9.58 l2.94 0 l0 14.28 l-3.14 0 l-5.94 -9.56 l-0.04 0 l0 9.56 l-2.94 0 l0 -14.28 l3.12 0 z M18.740000000000002 9.66 l0 5.86 c0 0.8 0.12666 1.42 0.38 1.86 s0.73334 0.66 1.44 0.66 c0.78666 0 1.35 -0.23334 1.69 -0.7 s0.51 -1.2133 0.51 -2.24 l0 -5.44 l2.84 0 l0 10.34 l-2.7 0 l0 -1.44 l-0.06 0 c-0.70666 1.1467 -1.7667 1.72 -3.18 1.72 c-1.3467 0 -2.31 -0.34334 -2.89 -1.03 s-0.87 -1.7433 -0.87 -3.17 l0 -6.42 l2.84 0 z M33.8 9.38 c0.24 0 0.44668 0.03334 0.62002 0.1 l0 2.64 c-0.30666 -0.06666 -0.64666 -0.1 -1.02 -0.1 c-1.8667 0 -2.8 1.1067 -2.8 3.32 l0 4.66 l-2.84 0 l0 -10.34 l2.7 0 l0 1.92 l0.04 0 c0.28 -0.66666 0.72334 -1.2 1.33 -1.6 s1.2633 -0.6 1.97 -0.6 z M39.78 9.38 c1.3867 0 2.47 0.28002 3.25 0.84002 s1.2167 1.38 1.31 2.46 l-2.7 0 c-0.04 -0.49334 -0.22 -0.85 -0.54 -1.07 s-0.78666 -0.33 -1.4 -0.33 c-0.53334 0 -0.93 0.08 -1.19 0.24 s-0.39 0.4 -0.39 0.72 c0 0.24 0.08666 0.44 0.26 0.6 s0.43668 0.3 0.79002 0.42 s0.74334 0.22 1.17 0.3 c1.2933 0.25334 2.2066 0.51334 2.74 0.78 s0.92334 0.58666 1.17 0.96 s0.37 0.83334 0.37 1.38 c0 1.16 -0.42334 2.05 -1.27 2.67 s-1.9967 0.93 -3.45 0.93 c-1.52 0 -2.7034 -0.32666 -3.55 -0.98 s-1.2833 -1.54 -1.31 -2.66 l2.7 0 c0 0.53334 0.20666 0.95668 0.62 1.27 s0.93334 0.47 1.56 0.47 c0.53334 0 0.97668 -0.11666 1.33 -0.35 s0.53 -0.55668 0.53 -0.97002 c0 -0.26666 -0.11 -0.48666 -0.33 -0.66 s-0.53 -0.32668 -0.93 -0.46002 s-1.02 -0.28668 -1.86 -0.46002 c-0.66666 -0.13334 -1.26 -0.31334 -1.78 -0.54 s-0.91666 -0.52332 -1.19 -0.88998 s-0.41 -0.81666 -0.41 -1.35 c0 -0.68 0.16334 -1.2733 0.49 -1.78 s0.82666 -0.89 1.5 -1.15 s1.51 -0.39 2.51 -0.39 z M51.06 9.38 c0.97334 0 1.84 0.22664 2.6 0.67998 s1.3567 1.11 1.79 1.97 s0.65 1.85 0.65 2.97 c0 0.10666 -0.0066602 0.28 -0.02 0.52 l-7.46 0 c0.02666 0.82666 0.24332 1.47 0.64998 1.93 s1.03 0.69 1.87 0.69 c0.52 0 0.99666 -0.13 1.43 -0.39 s0.71 -0.57666 0.83 -0.95 l2.5 0 c-0.73334 2.32 -2.3466 3.48 -4.84 3.48 c-0.94666 -0.01334 -1.8233 -0.22 -2.63 -0.62 s-1.45 -1.0233 -1.93 -1.87 s-0.72 -1.83 -0.72 -2.95 c0 -1.0533 0.24334 -2.0134 0.73 -2.88 s1.1333 -1.5133 1.94 -1.94 s1.6767 -0.64 2.61 -0.64 z M53.24 13.719999999999999 c-0.13334 -0.77334 -0.38 -1.3333 -0.74 -1.68 s-0.87334 -0.52 -1.54 -0.52 c-0.69334 0 -1.24 0.19666 -1.64 0.59 s-0.63334 0.93 -0.7 1.61 l4.62 0 z M70.02000000000001 5.380000000000001 c1.6667 0 3.0666 0.47 4.2 1.41 s1.7867 2.1834 1.96 3.73 l-3.04 0 c-0.10666 -0.70666 -0.46 -1.3 -1.06 -1.78 s-1.2867 -0.72 -2.06 -0.72 c-1.2267 0 -2.18 0.44 -2.86 1.32 s-1.02 2.0734 -1.02 3.58 c0 1.4667 0.34334 2.63 1.03 3.49 s1.6367 1.29 2.85 1.29 c0.90666 0 1.64 -0.27666 2.2 -0.83 s0.90666 -1.3433 1.04 -2.37 l3.04 0 c-0.16 1.8133 -0.81 3.24 -1.95 4.28 s-2.5834 1.56 -4.33 1.56 c-2.0934 0 -3.7866 -0.69 -5.08 -2.07 s-1.94 -3.1634 -1.94 -5.35 c0 -2.2134 0.64 -4.0234 1.92 -5.43 s2.98 -2.11 5.1 -2.11 z M83.16 9.38 c1.6533 0 2.96 0.50334 3.92 1.51 s1.44 2.3234 1.44 3.95 c0 1.64 -0.49 2.9566 -1.47 3.95 s-2.2766 1.49 -3.89 1.49 c-1.64 0 -2.94 -0.50334 -3.9 -1.51 s-1.44 -2.3166 -1.44 -3.93 c0 -1.6667 0.49 -2.9934 1.47 -3.98 s2.27 -1.48 3.87 -1.48 z M80.66 14.84 c0 1.0533 0.21334 1.8666 0.64 2.44 s1.0467 0.86 1.86 0.86 c0.84 0 1.47 -0.29334 1.89 -0.88 s0.63 -1.3933 0.63 -2.42 c0 -1.0667 -0.21666 -1.8867 -0.65 -2.46 s-1.0633 -0.86 -1.89 -0.86 c-0.8 0 -1.4133 0.28666 -1.84 0.86 s-0.64 1.3933 -0.64 2.46 z M96.3 9.38 c1.32 0 2.2766 0.33338 2.87 1 s0.89 1.7267 0.89 3.18 l0 6.44 l-2.84 0 l0 -5.86 c0 -0.85334 -0.13666 -1.4867 -0.41 -1.9 s-0.74334 -0.62 -1.41 -0.62 c-0.77334 0 -1.3333 0.23334 -1.68 0.7 s-0.52 1.2333 -0.52 2.3 l0 5.38 l-2.84 0 l0 -10.34 l2.7 0 l0 1.44 l0.06 0 c0.70666 -1.1467 1.7667 -1.72 3.18 -1.72 z M105.82 6.5600000000000005 l0.000019531 3.1 l2.08 0 l0 1.9 l-2.08 0 l0 5.12 c0 0.48 0.08 0.8 0.24 0.96 s0.48 0.24 0.96 0.24 c0.34666 0 0.64 -0.02666 0.88 -0.08 l0 2.22 c-0.4 0.06666 -0.96 0.1 -1.68 0.1 c-1.0933 0 -1.9067 -0.18666 -2.44 -0.56 s-0.8 -1.02 -0.8 -1.94 l0 -6.06 l-1.72 0 l0 -1.9 l1.72 0 l0 -3.1 l2.84 0 z M115.30000000000001 9.38 c0.24 0 0.44668 0.03334 0.62002 0.1 l0 2.64 c-0.30666 -0.06666 -0.64666 -0.1 -1.02 -0.1 c-1.8667 0 -2.8 1.1067 -2.8 3.32 l0 4.66 l-2.84 0 l0 -10.34 l2.7 0 l0 1.92 l0.04 0 c0.28 -0.66666 0.72334 -1.2 1.33 -1.6 s1.2633 -0.6 1.97 -0.6 z M121.7 9.38 c1.6533 0 2.96 0.50334 3.92 1.51 s1.44 2.3234 1.44 3.95 c0 1.64 -0.49 2.9566 -1.47 3.95 s-2.2766 1.49 -3.89 1.49 c-1.64 0 -2.94 -0.50334 -3.9 -1.51 s-1.44 -2.3166 -1.44 -3.93 c0 -1.6667 0.49 -2.9934 1.47 -3.98 s2.27 -1.48 3.87 -1.48 z M119.2 14.84 c0 1.0533 0.21334 1.8666 0.64 2.44 s1.0467 0.86 1.86 0.86 c0.84 0 1.47 -0.29334 1.89 -0.88 s0.63 -1.3933 0.63 -2.42 c0 -1.0667 -0.21666 -1.8867 -0.65 -2.46 s-1.0633 -0.86 -1.89 -0.86 c-0.8 0 -1.4133 0.28666 -1.84 0.86 s-0.64 1.3933 -0.64 2.46 z M131.82 5.720000000000001 l0 14.28 l-2.84 0 l0 -14.28 l2.84 0 z"></path></g></svg>