<svg class="css-ze2te4 css-qd6ojx" viewBox="0 0 56.45161290322581 54.882903069747414"><g transform="translate(-2.352124417274889, -3.9202073621248155) scale(0.6272331779399705)" class="css-1e98oqk" fill="#ffffff"><path xmlns="http://www.w3.org/2000/svg" fill="{{COLOR}}" d="M11.609,46.62c-0.229,0.229-0.359,0.55-0.359,0.88s0.13,0.649,0.37,0.88c0.229,0.24,0.55,0.37,0.88,0.37  s0.649-0.13,0.88-0.37c0.24-0.23,0.37-0.55,0.37-0.88s-0.13-0.65-0.37-0.891C12.92,46.149,12.08,46.149,11.609,46.62z M42.5,66.25  c-0.69,0-1.25,0.561-1.25,1.25s0.56,1.25,1.25,1.25c6.203,0,11.25,5.047,11.25,11.25S48.703,91.25,42.5,91.25S31.25,86.203,31.25,80  c0-6.823,2.701-12.184,9.634-19.116l6.616-6.616l4.116,4.116c0.243,0.244,0.563,0.366,0.884,0.366s0.641-0.122,0.884-0.366  c0.488-0.487,0.488-1.278,0-1.768l-10-10c-0.488-0.488-1.279-0.488-1.768,0c-0.489,0.488-0.488,1.279,0,1.768l4.116,4.116  l-6.616,6.616C31.656,66.576,28.75,72.432,28.75,80c0,7.582,6.168,13.75,13.75,13.75S56.25,87.582,56.25,80S50.082,66.25,42.5,66.25  z M25,66.25c-5.818,0-10.618-4.439-11.192-10.107c4.205-0.636,7.442-4.263,7.442-8.643c0-4.825-3.925-8.75-8.75-8.75  s-8.75,3.925-8.75,8.75c0,4.42,3.297,8.075,7.559,8.659C11.9,63.199,17.81,68.75,25,68.75c0.69,0,1.25-0.561,1.25-1.25  S25.69,66.25,25,66.25z M6.25,47.5c0-3.446,2.804-6.25,6.25-6.25s6.25,2.804,6.25,6.25c0,3.445-2.804,6.25-6.25,6.25  S6.25,50.945,6.25,47.5z M90.885,16.617c-0.486-0.487-1.275-0.487-1.765-0.001c-0.489,0.486-0.49,1.277-0.005,1.767  c0.594,0.599,2.135,2.505,2.135,4.118V32.5c0.001,8.978-6.555,11.288-16.553,13.787l-19.314,4.828l-6.498-6.498l4.828-19.314  C56.213,15.304,58.523,8.75,67.5,8.75h10c1.611,0,3.52,1.542,4.116,2.134c0.243,0.244,0.563,0.366,0.884,0.366  s0.641-0.122,0.884-0.366c0.488-0.488,0.488-1.279,0-1.768C83.091,8.823,80.434,6.25,77.5,6.25h-10  c-11.602,0-14.051,9.8-16.213,18.447l-5,20c-0.013,0.049,0,0.097-0.007,0.146c-0.011,0.086-0.019,0.168-0.012,0.254  c0.007,0.08,0.024,0.154,0.045,0.23c0.021,0.077,0.045,0.149,0.081,0.222c0.038,0.077,0.087,0.144,0.141,0.212  c0.03,0.039,0.045,0.086,0.081,0.122l7.5,7.5c0.017,0.018,0.038,0.021,0.057,0.038c0.082,0.072,0.173,0.129,0.271,0.179  c0.041,0.021,0.076,0.049,0.119,0.063c0.139,0.053,0.285,0.086,0.438,0.086c0,0,0,0,0.001,0s0.001,0,0.002,0  c0.101,0,0.2-0.013,0.302-0.037l20-5c8.646-2.161,18.446-4.61,18.445-16.212c0-4.956,0-10,0-10  C93.75,19.567,91.178,16.91,90.885,16.617z"></path></g></svg>